<?xml version="1.0" encoding="utf-8"?>
<!-- Generator: Adobe Illustrator 22.0.1, SVG Export Plug-In . SVG Version: 6.00 Build 0)  -->
<svg version="1.1" id="Capa_1" xmlns="http://www.w3.org/2000/svg" xmlns:xlink="http://www.w3.org/1999/xlink" x="0px" y="0px"
	 viewBox="0 0 14.3 19.3" style="enable-background:new 0 0 14.3 19.3;" xml:space="preserve">
<style type="text/css">
	.st0{fill:#FFFFFF;}
</style>
<g>
	<path class="st0" d="M7.2,16.1c0.1,0,0.3-0.1,0.4-0.1c0.2-0.2,0.5-0.4,0.7-0.6c1.3-1.1,2.3-1.9,2.3-3.1c0-1.2-0.9-2.1-2-2.1
		c-0.5,0-1,0.2-1.4,0.6c-0.4-0.4-0.8-0.6-1.4-0.6c-1.1,0-2,0.9-2,2.1c0,1.2,0.9,2,2.2,3.1c0.2,0.2,0.5,0.4,0.7,0.6
		C6.9,16,7,16.1,7.2,16.1z M5,12.2c0-0.5,0.3-0.9,0.8-0.9c0.6,0,0.8,0.7,0.8,0.7c0.1,0.3,0.3,0.5,0.6,0.5c0.3,0,0.5-0.2,0.6-0.4
		c0,0,0.2-0.7,0.8-0.7c0.4,0,0.8,0.4,0.8,0.9c0,0.7-0.7,1.3-1.8,2.2l-0.3,0.3l-0.3-0.3C5.7,13.5,5,12.9,5,12.2z"/>
	<path class="st0" d="M7.2,18.1c-0.3,0-0.6,0.3-0.6,0.6c0,0.3,0.3,0.6,0.6,0.6s0.6-0.3,0.6-0.6C7.8,18.3,7.5,18.1,7.2,18.1z"/>
	<path class="st0" d="M13.3,5.6C13.3,5,12.7,4.4,12,4.4h-2V2.8C10,1.3,8.7,0,7.2,0C5.6,0,4.3,1.3,4.3,2.8v1.6h-2C1.6,4.4,1,5,1,5.6
		L0,17.8c0,0.4,0.1,0.7,0.4,1c0.3,0.3,0.6,0.4,1,0.4h4.2c0.3,0,0.6-0.3,0.6-0.6c0-0.3-0.3-0.6-0.6-0.6H1.3c0,0-0.1,0-0.1,0
		c0,0,0-0.1,0-0.1l1-12.2c0-0.1,0.1-0.1,0.1-0.1h2v1H3.9c-0.3,0-0.6,0.3-0.6,0.6s0.3,0.6,0.6,0.6h2.2c0.3,0,0.6-0.3,0.6-0.6
		S6.4,6.6,6.1,6.6H5.6v-1h3.2v1H8.3c-0.3,0-0.6,0.3-0.6,0.6s0.3,0.6,0.6,0.6h2.2c0.3,0,0.6-0.3,0.6-0.6s-0.3-0.6-0.6-0.6H10v-1h2
		c0.1,0,0.1,0,0.1,0.1l1,12.2c0,0,0,0.1,0,0.1c0,0-0.1,0-0.1,0H8.8c-0.3,0-0.6,0.3-0.6,0.6c0,0.3,0.3,0.6,0.6,0.6H13
		c0.4,0,0.7-0.2,1-0.4c0.3-0.3,0.4-0.6,0.4-1L13.3,5.6z M5.6,4.4V2.8c0-0.9,0.7-1.6,1.6-1.6c0.9,0,1.6,0.7,1.6,1.6v1.6H5.6z"/>
</g>
</svg>
